<svg xmlns="http://www.w3.org/2000/svg"  viewBox="0 0 120 120">
  <path fill="#860094" d="M95.71,79.47H91v4.76h4.76v12.7h4.77V16.58a2.39,2.39,0,1,0-4.77,0V27.09H91v4.76h4.76V52.49H67.14v4.76H95.71ZM24.29,84.23H52.86V79.47H24.29V57.25h4.76V52.49H24.29V31.85H52.86V27.09H24.29V16.58a2.39,2.39,0,1,0-4.77,0V96.93h4.77Zm78.57,15.08H17.14A7.15,7.15,0,0,0,10,106.46v4a2.39,2.39,0,0,0,2.38,2.39h95.24a2.39,2.39,0,0,0,2.38-2.39v-4A7.15,7.15,0,0,0,102.86,99.31ZM31.43,50.11v9.52a4.76,4.76,0,0,0,9.52,0V50.11a4.76,4.76,0,0,0-9.52,0Zm11.9,0v9.52a4.77,4.77,0,0,0,9.53,0V50.11a4.77,4.77,0,0,0-9.53,0ZM60,64.39a4.76,4.76,0,0,0,4.76-4.76V50.11a4.76,4.76,0,0,0-9.52,0v9.52A4.76,4.76,0,0,0,60,64.39ZM83.81,39a4.77,4.77,0,0,0,4.76-4.77V24.71a4.76,4.76,0,1,0-9.52,0v9.52A4.77,4.77,0,0,0,83.81,39ZM71.9,39a4.78,4.78,0,0,0,4.77-4.77V24.71a4.77,4.77,0,0,0-9.53,0v9.52A4.77,4.77,0,0,0,71.9,39ZM60,39a4.77,4.77,0,0,0,4.76-4.77V24.71a4.76,4.76,0,0,0-9.52,0v9.52A4.77,4.77,0,0,0,60,39Zm19,38.09v9.53a4.76,4.76,0,1,0,9.52,0V77.09a4.76,4.76,0,1,0-9.52,0ZM71.9,91.38a4.77,4.77,0,0,0,4.77-4.76V77.09a4.77,4.77,0,0,0-9.53,0v9.53A4.76,4.76,0,0,0,71.9,91.38Zm-11.9,0a4.76,4.76,0,0,0,4.76-4.76V77.09a4.76,4.76,0,0,0-9.52,0v9.53A4.76,4.76,0,0,0,60,91.38Z" />
</svg>
